<svg width="48" height="48" viewBox="0 0 48 48" fill="none" xmlns="http://www.w3.org/2000/svg">
<circle cx="24" cy="24" r="24" transform="matrix(-1 0 0 1 48 0)" fill="#10B981"/>
<path d="M24.8875 24.0001L20.4625 19.5751C20.2297 19.3409 20.099 19.0241 20.099 18.6939C20.099 18.3636 20.2297 18.0468 20.4625 17.8126C20.5787 17.6955 20.7169 17.6025 20.8693 17.539C21.0216 17.4755 21.185 17.4429 21.35 17.4429C21.515 17.4429 21.6784 17.4755 21.8307 17.539C21.983 17.6025 22.1213 17.6955 22.2375 17.8126L27.5375 23.1126C27.6546 23.2288 27.7476 23.3671 27.8111 23.5194C27.8746 23.6717 27.9072 23.8351 27.9072 24.0001C27.9072 24.1651 27.8746 24.3285 27.8111 24.4808C27.7476 24.6332 27.6546 24.7714 27.5375 24.8876L22.2375 30.2501C22.1207 30.366 21.9822 30.4576 21.8299 30.5198C21.6776 30.582 21.5145 30.6136 21.35 30.6126C21.1855 30.6136 21.0224 30.582 20.8701 30.5198C20.7178 30.4576 20.5793 30.366 20.4625 30.2501C20.2297 30.0159 20.099 29.6991 20.099 29.3689C20.099 29.0386 20.2297 28.7218 20.4625 28.4876L24.8875 24.0001Z" fill="white"/>
</svg>
